# xmcd CD database file
#
# Track frame offsets:
#	183
#	11205
#	25158
#	38878
#	50380
#	63635
#	77030
#	90905
#	102988
#	115060
#
# Disc length: 1749 seconds
#
# Revision: 4
# Processed by: cddbd v1.5.2PL0 Copyright (c) Steve Scherf et al.
# Submitted via: jetAudio 7
#
DISCID=7606d30a
DTITLE=The Statler Brothers - Four For The Show
DYEAR=1986
DGENRE=Country
TTITLE0=Count On Me
TTITLE1=You Oughta Be Here With Me
TTITLE2=We Got The Mem'ries
TTITLE3=I Don't Dream Anymore
TTITLE4=Forever
TTITLE5=Only You
TTITLE6=For Cryin' Out Loud
TTITLE7=Will You Be There
TTITLE8=I Believe I'll Live For Him
TTITLE9=More Like Daddy Than Me
EXTD=
EXTT0=
EXTT1=
EXTT2=
EXTT3=
EXTT4=
EXTT5=
EXTT6=
EXTT7=
EXTT8=
EXTT9=
PLAYORDER=
